<?xml version="1.0" encoding="UTF-8"?>
<svg fill="none" viewBox="0 0 99 151" xmlns="http://www.w3.org/2000/svg">
<g clip-path="url(#a)">
<path d="m0.25671 31.429 1.9069 0.4538c2.4062-2.8383 4.3776-6.2503 7.2831-8.425 13.774-10.313 28.913-18.096 46.415-18.712 19.749-0.69353 35.938 7.1622 37.565 31.042 0.4728 7.1424-0.0296 14.316-1.4937 21.324-6.3146 29.967-21.81 55.303-41.546 78.266-3.0862 3.592-7.4423 6.096-11.114 9.213-1.2095 1.027-2.1178 2.41-3.1595 3.63 1.9241 0.385 3.874 1.19 5.7594 1.015 1.2526-0.116 2.3975-1.601 3.5511-2.518 18.582-14.731 29.472-35.005 40.066-55.413 9.1986-17.711 14.144-36.389 12.19-56.604-1.7734-18.323-13.206-31.153-31.53-33.392-23.037-2.8298-42.687 5.8693-60.538 19.444-1.8107 1.4767-3.2865 3.318-4.3303 5.4027-0.80062 1.5112-0.71454 3.4933-1.0245 5.2742zm6.3792 117.84 1.6486 1.656c1.3688-0.745 3.1035-1.177 4.0505-2.281 9.3147-10.887 18.724-21.705 27.548-32.964 2.1092-2.702 3.4005-7.299 2.686-10.497-0.5122-2.291-5.0018-3.703-7.4854-5.3559 2.4019-3.8143 5.7937-7.6116 7.2788-12.042 1.188-3.5532 1.4506-8.8831-0.4864-11.524-1.5539-2.1148-7.2315-2.3716-10.735-1.691-6.052 1.1773-11.842 3.7202-19.8 6.3745 1.7218-5.6724 2.3373-10.048 4.3045-13.699 8.088-14.8 20.622-25.523 34.203-35.053 7.1453-5.013 7.9718-4.5036 10.193 3.6132 0.0646 0.2398 0.6973 0.3254 1.2913 0.578 3.1853-3.1423 2.4406-6.4216 0.0301-9.4782-2.4104-3.0567-5.6258-4.1483-8.8929-1.6054-9.6247 7.4918-19.452 14.791-28.482 22.95-7.6878 6.9439-14.553 15.005-15.892 25.849-0.36158 2.9582 0.75757 6.901 2.6989 9.0458 1.2267 1.3528 5.3246 0.6165 7.9804 0.0685s5.006-2.4444 7.6533-2.9967c4.1021-0.8562 8.3376-1.036 12.513-1.5026-1.4204 4.0198-2.0015 8.6562-4.4421 11.927-5.3892 7.2221-11.794 13.699-17.588 20.635-0.9728 1.168-0.9642 3.142-1.4076 4.747 1.8423-0.158 3.8439 0.064 5.4796-0.603 1.2052-0.493 1.7734-2.329 2.8882-3.254 4.0118-3.331 7.4596-8.057 14.536-6.323-6.5686 17.693-21.307 29.115-31.771 43.427z" fill="#fff"/>
<path d="m0.25635 31.428c0.30992-1.7809 0.22383-3.763 1.0245-5.2827 1.0438-2.0847 2.5196-3.926 4.3303-5.4027 17.85-13.575 37.5-22.261 60.538-19.444 18.324 2.2475 29.756 15.078 31.53 33.392 1.9542 20.198-3.0131 38.893-12.19 56.604-10.593 20.408-21.483 40.67-40.066 55.414-1.1536 0.916-2.2986 2.401-3.5512 2.517-1.8724 0.176-3.8352-0.629-5.7593-1.015 1.0416-1.22 1.9499-2.602 3.1594-3.63 3.6717-3.116 8.0278-5.621 11.114-9.213 19.736-22.963 35.232-48.298 41.546-78.265 1.4649-7.011 1.9673-14.187 1.4937-21.332-1.6271-23.88-17.816-31.735-37.565-31.042-17.502 0.64643-32.653 8.4164-46.415 18.729-2.9055 2.1748-4.8769 5.5867-7.2831 8.425l-1.9069-0.4538z" fill="#FFFFF8"/>
<path d="m6.6355 149.26c10.481-14.312 25.22-25.725 31.775-43.414-7.0765-1.734-10.524 2.997-14.536 6.323-1.1148 0.925-1.683 2.761-2.8882 3.254-1.6357 0.667-3.6373 0.428-5.4796 0.603 0.4305-1.605 0.4305-3.579 1.4076-4.747 5.7938-6.94 12.199-13.413 17.588-20.635 2.4406-3.2707 3.0131-7.907 4.4422-11.927-4.1753 0.4666-8.4109 0.6636-12.513 1.5026-2.6472 0.5437-5.0104 2.4445-7.6533 2.9967-2.6429 0.5523-6.7536 1.2843-7.9804-0.0685-1.9413-2.1405-3.0605-6.0876-2.6989-9.0457 1.3387-10.844 8.2043-18.905 15.892-25.849 9.0393-8.1596 18.858-15.459 28.482-22.951 3.2671-2.5429 6.5083-1.4298 8.893 1.6054 2.3846 3.0353 3.1551 6.3359-0.0302 9.4782-0.5768-0.2526-1.2095-0.3382-1.2913-0.5779-2.2211-8.134-3.0475-8.6263-10.193-3.6132-13.58 9.5295-26.115 20.254-34.203 35.053-1.9844 3.6303-2.5827 8.0055-4.3045 13.699 7.9546-2.6542 13.744-5.1972 19.8-6.3744 3.5038-0.6807 9.1814-0.4281 10.735 1.691 1.937 2.6414 1.6744 7.9712 0.4864 11.524-1.485 4.4308-4.8769 8.2281-7.2788 12.042 2.4837 1.6529 6.9732 3.0649 7.4854 5.3559 0.7145 3.198-0.5768 7.795-2.686 10.497-8.824 11.276-18.234 22.094-27.548 32.964-0.947 1.104-2.6817 1.536-4.0505 2.281l-1.6529-1.669z" fill="#FFFFF8"/>
</g>
<defs>
<clipPath id="a">
<rect transform="translate(.25635 .76367)" width="97.844" height="150.16" fill="#fff"/>
</clipPath>
</defs>
</svg>
